<svg viewBox="0 0 520 129" fill="none" xmlns="http://www.w3.org/2000/svg">
<path d="M88.6 101.56C68.152 103.48 49.432 104.44 32.44 104.44C22.264 104.44 14.44 101.704 8.968 96.232C3.496 90.76 0.76 82.936 0.76 72.76V32.44C0.76 22.264 3.496 14.44 8.968 8.96799C14.44 3.49599 22.264 0.759995 32.44 0.759995H78.52C85.72 0.759995 91.336 2.82399 95.368 6.95199C99.496 10.984 101.56 16.6 101.56 23.8V77.08H81.4L79.96 69.88C75.736 72.856 71.56 75.064 67.432 76.504C63.304 77.848 59.8 78.52 56.92 78.52H54.04C47.512 78.52 42.28 76.552 38.344 72.616C34.408 68.68 32.44 63.448 32.44 56.92V51.88C32.44 45.352 34.408 40.12 38.344 36.184C42.28 32.248 47.512 30.28 54.04 30.28H78.52V25.96C78.52 24.136 77.896 22.6 76.648 21.352C75.4 20.104 73.864 19.48 72.04 19.48H33.88C31 19.48 28.6 20.44 26.68 22.36C24.76 24.28 23.8 26.68 23.8 29.56V75.64C23.8 78.52 24.76 80.92 26.68 82.84C28.6 84.76 31 85.72 33.88 85.72C46.264 85.72 64.504 85 88.6 83.56V101.56ZM64.12 59.08C68.248 59.08 73.048 58.12 78.52 56.2V48.28H61.96C60.52 48.28 59.32 48.76 58.36 49.72C57.4 50.68 56.92 51.88 56.92 53.32V54.04C56.92 55.48 57.4 56.68 58.36 57.64C59.32 58.6 60.52 59.08 61.96 59.08H64.12ZM200.853 100.84C178.389 103.24 157.749 104.44 138.933 104.44C129.525 104.44 122.613 102.232 118.197 97.816C113.781 93.4 111.573 86.488 111.573 77.08V31C111.573 20.92 113.829 13.624 118.341 9.112C122.949 4.50399 130.293 2.19999 140.373 2.19999H192.213V22.36H146.133C140.373 22.36 137.493 25.24 137.493 31V77.08C137.493 79.288 138.117 81.064 139.365 82.408C140.709 83.656 142.485 84.28 144.693 84.28C155.733 84.28 165.813 84.04 174.933 83.56V62.68H156.213V45.4H200.853V100.84ZM245.521 29.56V103H220.321V49H209.521V29.56H245.521ZM220.321 0.759995H245.521V20.92H220.321V0.759995ZM313.966 103L312.526 95.8C308.014 98.776 303.358 100.984 298.558 102.424C293.854 103.768 289.87 104.44 286.606 104.44H280.126C273.598 104.44 268.366 102.472 264.43 98.536C260.494 94.6 258.526 89.368 258.526 82.84V49.72C258.526 42.52 260.542 36.904 264.574 32.872C268.702 28.744 274.366 26.68 281.566 26.68H311.086V2.19999H336.286V103H313.966ZM293.806 83.56C298.894 83.56 304.654 82.6 311.086 80.68V46.12H289.486C285.646 46.12 283.726 48.04 283.726 51.88V78.52C283.726 79.96 284.206 81.16 285.166 82.12C286.126 83.08 287.326 83.56 288.766 83.56H293.806ZM404.669 103L403.229 95.8C398.717 98.776 394.061 100.984 389.261 102.424C384.557 103.768 380.573 104.44 377.309 104.44H370.829C364.301 104.44 359.069 102.472 355.133 98.536C351.197 94.6 349.229 89.368 349.229 82.84V49.72C349.229 42.52 351.245 36.904 355.277 32.872C359.405 28.744 365.069 26.68 372.269 26.68H401.789V2.19999H426.989V103H404.669ZM384.509 83.56C389.597 83.56 395.357 82.6 401.789 80.68V46.12H380.189C376.349 46.12 374.429 48.04 374.429 51.88V78.52C374.429 79.96 374.909 81.16 375.869 82.12C376.829 83.08 378.029 83.56 379.469 83.56H384.509ZM461.532 128.92C456.444 128.92 450.204 128.44 442.812 127.48V108.76H455.772C459.42 108.76 461.772 107.752 462.828 105.736C463.98 103.72 463.788 100.888 462.252 97.24L432.732 26.68H459.372L477.372 75.64L492.492 26.68H519.132L490.332 105.88C487.548 113.464 483.948 119.176 479.532 123.016C475.116 126.952 469.116 128.92 461.532 128.92Z" fill="#A1CE8B"/>
</svg>
